
<svg width="60" height="60" viewBox="0 0 60 60" xmlns="http://www.w3.org/2000/svg">
  <path d="M30 10C35.5228 10 40 14.4772 40 20C40 25.5228 35.5228 30 30 30C24.4772 30 20 25.5228 20 20C20 14.4772 24.4772 10 30 10Z" stroke="#8b5cf6" stroke-opacity="0.9" stroke-width="3" fill="none" />
  <path d="M30 5C38.2843 5 45 11.7157 45 20C45 28.2843 38.2843 35 30 35C21.7157 35 15 28.2843 15 20C15 11.7157 21.7157 5 30 5Z" stroke="#8b5cf6" stroke-opacity="0.8" stroke-width="3" fill="none" />
  <path d="M15 30C15 21.7157 21.7157 15 30 15C38.2843 15 45 21.7157 45 30C45 38.2843 38.2843 45 30 45C21.7157 45 15 38.2843 15 30Z" stroke="#8b5cf6" stroke-opacity="0.8" stroke-width="3" fill="none" />
  <path d="M20 44.1421C20 38.6193 24.4772 34.1421 30 34.1421C35.5228 34.1421 40 38.6193 40 44.1421C40 49.665 35.5228 54.1421 30 54.1421C24.4772 54.1421 20 49.665 20 44.1421Z" stroke="#8b5cf6" stroke-opacity="0.9" stroke-width="3" fill="none" />
</svg>
